<?xml version="1.0" encoding="utf-8"?>
<!-- Generator: Adobe Illustrator 18.0.0, SVG Export Plug-In . SVG Version: 6.00 Build 0)  -->
<!DOCTYPE svg PUBLIC "-//W3C//DTD SVG 1.1//EN" "http://www.w3.org/Graphics/SVG/1.1/DTD/svg11.dtd">
<svg version="1.1" id="Layer_1" xmlns="http://www.w3.org/2000/svg" xmlns:xlink="http://www.w3.org/1999/xlink" x="0px" y="0px"
	 viewBox="120.9 375.2 900 250" enable-background="new 120.9 375.2 900 250" xml:space="preserve">
<g>
	<circle fill="#E74C3C" cx="231.7" cy="500.2" r="108.8"/>
	<path fill="#FFFFFF" d="M304.2,500.2c-0.3-8.8-7.7-15.6-16.5-15.3c-3.9,0.1-7.6,1.7-10.4,4.4c-12.4-8.4-26.9-13.1-41.9-13.4
		l7.1-33.9l23.3,4.9c0.6,6,6,10.3,12,9.7c6-0.6,10.3-6,9.7-12c-0.6-6-6-10.3-12-9.7c-3.4,0.4-6.5,2.4-8.2,5.3l-26.7-5.3
		c-1.8-0.4-3.6,0.7-4,2.6c0,0,0,0,0,0.1l-8,37.7c-15.1,0.2-29.9,4.9-42.4,13.4c-6.4-6-16.4-5.7-22.4,0.7c-6,6.4-5.7,16.4,0.7,22.4
		c1.2,1.2,2.7,2.2,4.3,2.9c-0.1,1.6-0.1,3.2,0,4.8c0,24.4,28.4,44.2,63.4,44.2s63.4-19.8,63.4-44.2c0.1-1.6,0.1-3.2,0-4.8
		C300.9,512,304.4,506.4,304.2,500.2z M195.5,511.1c0-6,4.9-10.9,10.9-10.9c6,0,10.9,4.9,10.9,10.9c0,6-4.9,10.9-10.9,10.9
		C200.3,522,195.5,517.1,195.5,511.1z M258.7,541c-7.7,5.8-17.2,8.8-26.9,8.4c-9.7,0.4-19.1-2.6-26.9-8.4c-1-1.2-0.8-3.1,0.4-4.1
		c1.1-0.9,2.6-0.9,3.7,0c6.5,4.8,14.5,7.2,22.6,6.8c8.1,0.4,16.1-1.9,22.7-6.6c1.2-1.2,3.1-1.1,4.3,0.1c1.2,1.2,1.1,3.1-0.1,4.3l0,0
		V541L258.7,541z M256.7,522.4c-6,0-10.9-4.9-10.9-10.9s4.9-10.9,10.9-10.9c6,0,10.9,4.9,10.9,10.9c0.2,6-4.4,11.1-10.4,11.3
		c-0.2,0-0.4,0-0.5,0L256.7,522.4z"/>
</g>
<g>
	<circle fill="#E74C3C" cx="920.5" cy="429.2" r="21.9"/>
	<path d="M609.8,522.5c8.5,0.6,15.8-5.8,16.5-14.3c0-0.5,0-1,0-1.6c-0.1-3-0.5-6-1.1-8.9c-5.2-27.8-28.9-48.2-57.1-49.3
		c-32.1,0-59,29.5-59,65.8s26.4,65.8,58.9,65.8c17.2,0.7,34-6.3,45.6-19c4.8-5.2,4.4-13.2-0.8-18c-0.4-0.4-0.8-0.7-1.2-1
		c-5.2-3.2-12-2.6-16.4,1.7c-7.2,7.2-17,11.3-27.2,11.6c-17.7-1.4-31.8-15.2-33.6-33h74.8L609.8,522.5z M568,473.2
		c15.6,1,28.6,12.2,32.1,27.4h-64.2C539.4,485.3,552.4,474.2,568,473.2z"/>
	<path d="M510.5,461.2c0-6.2-4.6-11.4-10.7-12.2c-16.5-2.8-33.3,3.4-44.2,16.2v-1.6c0-6.8-5.5-12.4-12.4-12.4
		c-6.8,0-12.4,5.5-12.4,12.4v101.2c-0.2,6.6,4.9,12.3,11.6,12.8c6.8,0.5,12.7-4.6,13.1-11.4c0-0.5,0-1,0-1.4v-51.9
		c-1.1-20.7,14.8-38.4,35.5-39.5c1.8-0.1,3.7-0.1,5.6,0.1h2.5C505.5,473,510.5,467.6,510.5,461.2z"/>
	<path d="M932.8,474.5c0-6.8-5.5-12.4-12.4-12.4c-6.8,0-12.4,5.5-12.4,12.4l0,0v90.3c0,6.8,5.5,12.4,12.4,12.4
		c6.8,0,12.4-5.5,12.4-12.4V474.5z"/>
	<path d="M750.4,405.9c0-6.8-5.5-12.3-12.3-12.3l0,0l0,0c-6.8,0-12.3,5.5-12.3,12.3v55.2c-8.3-8.4-19.8-13-31.6-12.6
		c-32.1,0-59,29.5-59,65.8s26.4,65.8,59,65.8c12,0.4,23.6-4.2,32.1-12.8c1.9,6.5,8.8,10.2,15.3,8.3c4.9-1.4,8.4-5.8,8.8-10.9
		L750.4,405.9L750.4,405.9z M694.1,555.6c-18.9,0-34.3-18.4-34.3-41.2c0-22.8,15.3-41.2,34.3-41.2c19,0,34.3,18.4,34.3,41.2
		c0,22.8-15.3,41-34.2,41L694.1,555.6z"/>
	<path d="M879.3,405.9c0-6.8-5.5-12.3-12.3-12.3l0,0c-6.8,0-12.3,5.5-12.3,12.3l0,0v55.2c-8.3-8.4-19.8-13-31.6-12.6
		c-32.1,0-59,29.5-59,65.8s26.4,65.8,59,65.8c12,0.4,23.6-4.2,32.1-12.8c1.9,6.5,8.8,10.2,15.3,8.3c4.9-1.4,8.4-5.8,8.8-10.9
		L879.3,405.9L879.3,405.9z M823,555.6c-18.9,0-34.3-18.4-34.3-41.2c0-22.8,15.3-41.2,34.3-41.2s34.3,18.4,34.3,41.2
		c0,22.8-15.3,41-34.2,41L823,555.6z"/>
	<path d="M996.8,564.7v-91.5h10.7c5.9,0.4,11-4.2,11.3-10c0-0.2,0-0.4,0-0.7c0.5-5.9-3.8-11.1-9.7-11.6c-0.3,0-0.7,0-1,0h-11.3v-17
		c0.1-6.6-5-12.2-11.6-12.8c-6.8-0.5-12.6,4.6-13.1,11.4c0,0.3,0,0.6,0,0.9v17.8h-10.7c-5.9-0.4-11,4.2-11.3,10c0,0.2,0,0.4,0,0.7
		c-0.5,5.9,3.8,11.1,9.7,11.6c0.3,0,0.7,0,1,0h10.7v91.3c0,6.8,5.5,12.3,12.3,12.3l0,0l0,0c6.8,0.4,12.6-4.8,13-11.6
		C996.8,565.3,996.8,565,996.8,564.7z"/>
</g>
</svg>
