<?xml version="1.0" encoding="utf-8"?>
<!-- Generator: Adobe Illustrator 18.0.0, SVG Export Plug-In . SVG Version: 6.00 Build 0)  -->
<!DOCTYPE svg PUBLIC "-//W3C//DTD SVG 1.1//EN" "http://www.w3.org/Graphics/SVG/1.1/DTD/svg11.dtd">
<svg version="1.1" id="Layer_1" xmlns="http://www.w3.org/2000/svg" xmlns:xlink="http://www.w3.org/1999/xlink" x="0px" y="0px"
	 viewBox="2.3 722.2 995.5 241.8" enable-background="new 2.3 722.2 995.5 241.8" xml:space="preserve">
<g>
	<circle fill="#D3D3D3" cx="123.1" cy="843.1" r="120.9"/>
	<path fill="#FFFFFF" d="M203.7,843.1c-0.3-9.8-8.6-17.3-18.3-17c-4.3,0.1-8.4,1.9-11.6,4.9c-13.8-9.3-29.9-14.6-46.6-14.9l7.9-37.7
		l25.9,5.4c0.7,6.7,6.7,11.4,13.3,10.8c6.7-0.7,11.4-6.7,10.8-13.3c-0.7-6.7-6.7-11.4-13.3-10.8c-3.8,0.4-7.2,2.7-9.1,5.9l-29.7-5.9
		c-2-0.4-4,0.8-4.4,2.9c0,0,0,0,0,0.1l-8.9,41.9c-16.8,0.2-33.2,5.4-47.1,14.9c-7.1-6.7-18.2-6.3-24.9,0.8s-6.3,18.2,0.8,24.9
		c1.3,1.3,3,2.4,4.8,3.2c-0.1,1.8-0.1,3.6,0,5.3c0,27.1,31.6,49.1,70.4,49.1s70.4-22,70.4-49.1c0.1-1.8,0.1-3.6,0-5.3
		C200,856.2,203.9,850,203.7,843.1z M82.9,855.2c0-6.7,5.4-12.1,12.1-12.1c6.7,0,12.1,5.4,12.1,12.1c0,6.7-5.4,12.1-12.1,12.1
		C88.3,867.3,82.9,861.9,82.9,855.2z M153.1,888.4c-8.6,6.4-19.1,9.8-29.9,9.3c-10.8,0.4-21.2-2.9-29.9-9.3
		c-1.1-1.3-0.9-3.4,0.4-4.6c1.2-1,2.9-1,4.1,0c7.2,5.3,16.1,8,25.1,7.6c9,0.4,17.9-2.1,25.2-7.3c1.3-1.3,3.4-1.2,4.8,0.1
		c1.3,1.3,1.2,3.4-0.1,4.8l0,0v-0.6H153.1z M150.9,867.8c-6.7,0-12.1-5.4-12.1-12.1s5.4-12.1,12.1-12.1c6.7,0,12.1,5.4,12.1,12.1
		c0.2,6.7-4.9,12.3-11.6,12.6c-0.2,0-0.4,0-0.6,0V867.8z"/>
</g>
<g>
	<circle fill="#D3D3D3" cx="888.5" cy="764.2" r="24.3"/>
	<path fill="#D3D3D3" d="M543.3,867.9c9.4,0.7,17.6-6.4,18.3-15.9c0-0.6,0-1.1,0-1.8c-0.1-3.3-0.6-6.7-1.2-9.9
		c-5.8-30.9-32.1-53.6-63.4-54.8c-35.7,0-65.6,32.8-65.6,73.1c0,40.3,29.3,73.1,65.4,73.1c19.1,0.8,37.8-7,50.7-21.1
		c5.3-5.8,4.9-14.7-0.9-20c-0.4-0.4-0.9-0.8-1.3-1.1c-5.8-3.6-13.3-2.9-18.2,1.9c-8,8-18.9,12.6-30.2,12.9
		c-19.7-1.6-35.3-16.9-37.3-36.7h83.1L543.3,867.9z M496.8,813.1c17.3,1.1,31.8,13.6,35.7,30.4h-71.3
		C465,826.6,479.5,814.2,496.8,813.1z"/>
	<path fill="#D3D3D3" d="M432.9,799.8c0-6.9-5.1-12.7-11.9-13.6c-18.3-3.1-37,3.8-49.1,18v-1.8c0-7.6-6.1-13.8-13.8-13.8
		c-7.6,0-13.8,6.1-13.8,13.8v112.4c-0.2,7.3,5.4,13.7,12.9,14.2c7.6,0.6,14.1-5.1,14.6-12.7c0-0.6,0-1.1,0-1.6v-57.7
		c-1.2-23,16.4-42.7,39.4-43.9c2-0.1,4.1-0.1,6.2,0.1h2.8C427.4,812.9,432.9,806.9,432.9,799.8z"/>
	<path fill="#D3D3D3" d="M902.1,814.6c0-7.6-6.1-13.8-13.8-13.8c-7.6,0-13.8,6.1-13.8,13.8l0,0v100.3c0,7.6,6.1,13.8,13.8,13.8
		c7.6,0,13.8-6.1,13.8-13.8V814.6z"/>
	<path fill="#D3D3D3" d="M699.5,738.3c0-7.6-6.1-13.7-13.7-13.7l0,0l0,0c-7.6,0-13.7,6.1-13.7,13.7v61.3c-9.2-9.3-22-14.4-35.1-14
		c-35.7,0-65.6,32.8-65.6,73.1c0,40.3,29.3,73.1,65.6,73.1c13.3,0.4,26.2-4.7,35.7-14.2c2.1,7.2,9.8,11.3,17,9.2
		c5.4-1.6,9.3-6.4,9.8-12.1V738.3L699.5,738.3z M636.9,904.7c-21,0-38.1-20.4-38.1-45.8s17-45.8,38.1-45.8
		c21.1,0,38.1,20.4,38.1,45.8c0,25.3-17,45.6-38,45.6L636.9,904.7z"/>
	<path fill="#D3D3D3" d="M842.7,738.3c0-7.6-6.1-13.7-13.7-13.7l0,0c-7.6,0-13.7,6.1-13.7,13.7l0,0v61.3c-9.2-9.3-22-14.4-35.1-14
		c-35.7,0-65.6,32.8-65.6,73.1c0,40.3,29.3,73.1,65.6,73.1c13.3,0.4,26.2-4.7,35.7-14.2c2.1,7.2,9.8,11.3,17,9.2
		c5.4-1.6,9.3-6.4,9.8-12.1V738.3L842.7,738.3z M780.1,904.7c-21,0-38.1-20.4-38.1-45.8s17-45.8,38.1-45.8
		c21.1,0,38.1,20.4,38.1,45.8c0,25.3-17,45.6-38,45.6L780.1,904.7z"/>
	<path fill="#D3D3D3" d="M973.3,914.8V813.1h11.9c6.6,0.4,12.2-4.7,12.6-11.1c0-0.2,0-0.4,0-0.8c0.6-6.6-4.2-12.3-10.8-12.9
		c-0.3,0-0.8,0-1.1,0h-12.6v-18.9c0.1-7.3-5.6-13.6-12.9-14.2c-7.6-0.6-14,5.1-14.6,12.7c0,0.3,0,0.7,0,1v19.8h-11.9
		c-6.6-0.4-12.2,4.7-12.6,11.1c0,0.2,0,0.4,0,0.8c-0.6,6.6,4.2,12.3,10.8,12.9c0.3,0,0.8,0,1.1,0h11.9v101.4
		c0,7.6,6.1,13.7,13.7,13.7l0,0l0,0c7.6,0.4,14-5.3,14.4-12.9C973.3,915.4,973.3,915.1,973.3,914.8z"/>
</g>
</svg>
